<?xml version="1.0" encoding="UTF-8" standalone="no"?>
<svg
   width="200"
   height="200"
   viewBox="0 0 200 200"
   version="1.1"
   id="svg1051"
   xmlns="http://www.w3.org/2000/svg"
   xmlns:svg="http://www.w3.org/2000/svg">
  <defs
     id="defs1045" />
  <path
     d="M 100 7.8359375 A 92.163849 92.163849 0 0 0 7.8359375 100 A 92.163849 92.163849 0 0 0 100 192.16406 A 92.163849 92.163849 0 0 0 192.16406 100 A 92.163849 92.163849 0 0 0 100 7.8359375 z M 40 60 L 45 60 L 95 60 L 100 60 L 100 95 L 95 95 L 45 95 L 40 95 L 40 60 z M 110 60 L 120 60 L 120 105 L 110 105 L 110 60 z M 130 60 L 140 60 L 140 105 L 130 105 L 130 60 z M 150 60 L 160 60 L 160 105 L 150 105 L 150 60 z M 45 65 L 45 90 L 95 90 L 95 65 L 45 65 z M 55 100 L 85 100 L 85 105 L 55 105 L 55 100 z M 35 110 L 40 110 L 165 110 L 165 155 L 160 155 L 160 115 L 40 115 L 40 155 L 35 155 L 35 115 L 35 110 z "
     style="display:inline;fill:#d7621d;fill-opacity:1;stroke:none;stroke-width:5.6723;stroke-miterlimit:0"
     id="path1049" />
</svg>
