<?xml version="1.0" encoding="UTF-8" standalone="no"?>
<svg
   width="200"
   height="200"
   viewBox="0 0 200 200"
   version="1.1"
   id="svg848"
   xmlns="http://www.w3.org/2000/svg"
   xmlns:svg="http://www.w3.org/2000/svg"
   xmlns:rdf="http://www.w3.org/1999/02/22-rdf-syntax-ns#"
   xmlns:cc="http://creativecommons.org/ns#"
   xmlns:dc="http://purl.org/dc/elements/1.1/">
  <defs
     id="defs842">
    <marker
       style="overflow:visible"
       id="Arrow1Mstart"
       refX="0.0"
       refY="0.0"
       orient="auto">
      <path
         transform="scale(0.4) translate(10,0)"
         style="fill-rule:evenodd;stroke:#000000;stroke-width:1.0pt"
         d="M 0.0,0.0 L 5.0,-5.0 L -12.5,0.0 L 5.0,5.0 L 0.0,0.0 z "
         id="path1443" />
    </marker>
    <marker
       style="overflow:visible;"
       id="Arrow1Lend"
       refX="0.0"
       refY="0.0"
       orient="auto">
      <path
         transform="scale(0.8) rotate(180) translate(12.5,0)"
         style="fill-rule:evenodd;stroke:#000000;stroke-width:1.0pt;"
         d="M 0.0,0.0 L 5.0,-5.0 L -12.5,0.0 L 5.0,5.0 L 0.0,0.0 z "
         id="path1440" />
    </marker>
    <marker
       style="overflow:visible"
       id="Arrow1Lstart"
       refX="0.0"
       refY="0.0"
       orient="auto">
      <path
         transform="scale(0.8) translate(12.5,0)"
         style="fill-rule:evenodd;stroke:#000000;stroke-width:1.0pt"
         d="M 0.0,0.0 L 5.0,-5.0 L -12.5,0.0 L 5.0,5.0 L 0.0,0.0 z "
         id="path1437" />
    </marker>
  </defs>
  <metadata
     id="metadata845">
    <rdf:RDF>
      <cc:Work
         rdf:about="">
        <dc:format>image/svg+xml</dc:format>
        <dc:type
           rdf:resource="http://purl.org/dc/dcmitype/StillImage" />
      </cc:Work>
    </rdf:RDF>
  </metadata>
  <g
     id="layer1"
     style="display:none">
    <rect
       style="fill:#ffffff;fill-opacity:1;stroke-width:4.76326;stroke-miterlimit:0"
       id="rect1431"
       width="200"
       height="200"
       x="0"
       y="0" />
    <rect
       style="fill:#ff0000;fill-opacity:1;stroke:#ffffff;stroke-width:0;stroke-miterlimit:0"
       id="rect1660"
       width="200"
       height="200"
       x="0"
       y="0" />
  </g>
  <g
     id="layer2"
     style="display:inline">
    <circle
       style="fill:#000000;fill-opacity:1;stroke:#000000;stroke-width:5.6723;stroke-miterlimit:0;stroke-opacity:0"
       id="path1024"
       cx="100"
       cy="100"
       r="92.163849" />
    <path
       id="rect874"
       style="display:inline;fill:#ffffff;fill-opacity:1;stroke:#ffffff;stroke-width:0;stroke-miterlimit:0"
       d="m 40,54.5 v 35 h 5 50 5 v -35 H 95 45 Z m 70,0 v 45 h 10 v -45 z m 20,0 v 45 h 10 v -45 z m 20,0 v 45 h 10 v -45 z m -105,5 h 50 v 25 H 45 Z m 10,35 v 5 h 30 v -5 z m -20,10 v 5 40 h 5 v -40 h 120 v 40 h 5 v -45 H 40 Z" />
  </g>
  <g
     id="layer3"
     style="display:none" />
</svg>
